<svg xmlns="http://www.w3.org/2000/svg" viewBox="0 0 48 48">
  <path
    fill="#EA4335"
    d="M24 9.5c3.54 0 6.44 1.22 8.84 3.22l6.6-6.6C35.36 2.78 30.15 0 24 0 14.6 0 6.56 5.38 2.56 13.22l7.72 6C12.12 13.22 17.55 9.5 24 9.5z"
  />
  <path
    fill="#4285F4"
    d="M46.06 24.5c0-1.52-.14-2.98-.38-4.4H24v8.32h12.4c-.54 2.92-2.18 5.4-4.66 7.06l7.22 5.6c4.2-3.88 6.1-9.6 6.1-16.58z"
  />
  <path
    fill="#FBBC05"
    d="M10.28 28.7c-.48-1.42-.76-2.92-.76-4.42s.28-3 .76-4.42l-7.72-6C.92 16.82 0 20.28 0 24s.92 7.18 2.56 10.12l7.72-5.42z"
  />
  <path
    fill="#34A853"
    d="M24 48c6.4 0 11.78-2.12 15.7-5.76l-7.22-5.6c-2 1.34-4.56 2.14-8.48 2.14-6.48 0-11.98-4.38-13.94-10.26l-7.72 5.42C6.56 42.62 14.6 48 24 48z"
  />
</svg>
